<svg version="1.1" id="Layer_1" xmlns="http://www.w3.org/2000/svg" xmlns:xlink="http://www.w3.org/1999/xlink" x="0px" y="0px"
viewBox="0 0 7.6 12.1" style="enable-background:new 0 0 7.6 12.1;" xml:space="preserve">
<g id="NewGroupe0_26_"><g id="NewGroup26-0"><g><g><path d="M6.8,6.4l-4.4,5c-0.2,0.2-0.5,0.3-0.8,0c-0.2-0.2-0.3-0.5,0-0.8l4.1-4.6L1.5,1.5C1.4,1.2,1.4,0.9,1.6,0.7
c0.2-0.2,0.5-0.2,0.7,0l4.4,5C7,5.9,7,6.2,6.8,6.4L6.8,6.4z"/>
<path d="M2,12.1c-0.2,0-0.5-0.1-0.7-0.3c-0.4-0.4-0.5-1-0.1-1.5L5,6.1L1.2,1.8C1,1.6,0.9,1.3,0.9,1c0-0.3,0.2-0.5,0.4-0.7
C1.7,0,2.4,0,2.7,0.4l4.4,5c0.3,0.4,0.3,1,0,1.4l0,0l-4.4,5C2.5,11.9,2.3,12.1,2,12.1z"/>
</g></g></g></g></svg>
